<mxfile host="app.diagrams.net" agent="Mozilla/5.0 (X11; Ubuntu; Linux x86_64; rv:132.0) Gecko/20100101 Firefox/132.0" version="24.9.0">
  <diagram name="Page-1" id="UqBte_zqg9f-_gAqM2X4">
    <mxGraphModel grid="1" page="1" gridSize="10" guides="1" tooltips="1" connect="1" arrows="1" fold="1" pageScale="1" pageWidth="3300" pageHeight="4681" math="0" shadow="0">
      <root>
        <mxCell id="0" />
        <mxCell id="1" parent="0" />
        <mxCell id="HkxYF3BNBB2d2TkF1YXQ-1" value="" style="rounded=0;whiteSpace=wrap;html=1;fillColor=none;strokeWidth=3;" vertex="1" parent="1">
          <mxGeometry x="400" y="50" width="500" height="720" as="geometry" />
        </mxCell>
        <mxCell id="HkxYF3BNBB2d2TkF1YXQ-2" value="&lt;pre aria-label=&quot;Translated text: Petitioner&quot; dir=&quot;ltr&quot; data-ved=&quot;2ahUKEwib_dqemvWJAxWP2gIHHToVGhYQ3ewLegQIBRAT&quot; style=&quot;text-align: left;&quot; id=&quot;tw-target-text&quot; data-placeholder=&quot;Translation&quot; class=&quot;tw-data-text tw-text-large tw-ta&quot;&gt;&lt;font style=&quot;font-size: 17px;&quot; face=&quot;Times New Roman&quot;&gt;&lt;span lang=&quot;en&quot; class=&quot;Y2IQFc&quot;&gt;&lt;b&gt;Petitioner&lt;/b&gt;&lt;/span&gt;&lt;/font&gt;&lt;/pre&gt;" style="text;html=1;align=center;verticalAlign=middle;whiteSpace=wrap;rounded=0;" vertex="1" parent="1">
          <mxGeometry x="620" y="60" width="60" height="30" as="geometry" />
        </mxCell>
        <mxCell id="HkxYF3BNBB2d2TkF1YXQ-3" value="&lt;pre aria-label=&quot;Translated text: Petitioner&quot; dir=&quot;ltr&quot; data-ved=&quot;2ahUKEwib_dqemvWJAxWP2gIHHToVGhYQ3ewLegQIBRAT&quot; style=&quot;text-align: left;&quot; id=&quot;tw-target-text&quot; data-placeholder=&quot;Translation&quot; class=&quot;tw-data-text tw-text-large tw-ta&quot;&gt;&lt;font style=&quot;font-size: 15px;&quot; face=&quot;Times New Roman&quot;&gt;&lt;span lang=&quot;en&quot; class=&quot;Y2IQFc&quot;&gt;Petitioner&lt;/span&gt;&lt;/font&gt;&lt;/pre&gt;" style="shape=umlActor;html=1;verticalLabelPosition=bottom;verticalAlign=top;align=center;" vertex="1" parent="1">
          <mxGeometry x="220" y="330" width="30" height="60" as="geometry" />
        </mxCell>
        <mxCell id="HkxYF3BNBB2d2TkF1YXQ-4" value="&lt;font style=&quot;font-size: 15px;&quot; face=&quot;Times New Roman&quot;&gt;View the requests&lt;br&gt;&lt;/font&gt;" style="ellipse;whiteSpace=wrap;html=1;" vertex="1" parent="1">
          <mxGeometry x="580" y="160" width="140" height="60" as="geometry" />
        </mxCell>
        <mxCell id="HkxYF3BNBB2d2TkF1YXQ-5" value="&lt;font style=&quot;font-size: 15px;&quot; face=&quot;Times New Roman&quot;&gt;Send the required &lt;/font&gt;&lt;font style=&quot;font-size: 15px;&quot; face=&quot;Times New Roman&quot;&gt;&lt;span lang=&quot;en&quot; class=&quot;Y2IQFc&quot;&gt;Petition&lt;/span&gt;&lt;/font&gt;" style="ellipse;whiteSpace=wrap;html=1;" vertex="1" parent="1">
          <mxGeometry x="580" y="320" width="140" height="70" as="geometry" />
        </mxCell>
        <mxCell id="HkxYF3BNBB2d2TkF1YXQ-6" value="" style="edgeStyle=none;html=1;endArrow=none;verticalAlign=bottom;rounded=0;exitX=1;exitY=0.3333333333333333;exitDx=0;exitDy=0;exitPerimeter=0;entryX=0;entryY=0.5;entryDx=0;entryDy=0;" edge="1" parent="1" source="HkxYF3BNBB2d2TkF1YXQ-3" target="HkxYF3BNBB2d2TkF1YXQ-4">
          <mxGeometry width="160" relative="1" as="geometry">
            <mxPoint x="620" y="410" as="sourcePoint" />
            <mxPoint x="780" y="410" as="targetPoint" />
          </mxGeometry>
        </mxCell>
        <mxCell id="HkxYF3BNBB2d2TkF1YXQ-7" value="" style="edgeStyle=none;html=1;endArrow=none;verticalAlign=bottom;rounded=0;exitX=1;exitY=0.3333333333333333;exitDx=0;exitDy=0;exitPerimeter=0;entryX=0;entryY=0.5;entryDx=0;entryDy=0;" edge="1" parent="1" source="HkxYF3BNBB2d2TkF1YXQ-3" target="HkxYF3BNBB2d2TkF1YXQ-5">
          <mxGeometry width="160" relative="1" as="geometry">
            <mxPoint x="620" y="410" as="sourcePoint" />
            <mxPoint x="780" y="410" as="targetPoint" />
          </mxGeometry>
        </mxCell>
        <mxCell id="HkxYF3BNBB2d2TkF1YXQ-8" value="&lt;font style=&quot;font-size: 15px;&quot; face=&quot;Times New Roman&quot;&gt;User&lt;/font&gt;" style="shape=umlActor;html=1;verticalLabelPosition=bottom;verticalAlign=top;align=center;" vertex="1" parent="1">
          <mxGeometry x="960" y="325" width="30" height="60" as="geometry" />
        </mxCell>
        <mxCell id="HkxYF3BNBB2d2TkF1YXQ-9" value="" style="edgeStyle=none;html=1;endArrow=none;verticalAlign=bottom;rounded=0;entryX=0;entryY=0.3333333333333333;entryDx=0;entryDy=0;entryPerimeter=0;exitX=1;exitY=0.4;exitDx=0;exitDy=0;exitPerimeter=0;" edge="1" parent="1" source="HkxYF3BNBB2d2TkF1YXQ-5" target="HkxYF3BNBB2d2TkF1YXQ-8">
          <mxGeometry width="160" relative="1" as="geometry">
            <mxPoint x="620" y="410" as="sourcePoint" />
            <mxPoint x="780" y="410" as="targetPoint" />
          </mxGeometry>
        </mxCell>
      </root>
    </mxGraphModel>
  </diagram>
</mxfile>
